<svg width="30" height="40" viewBox="0 0 30 40" fill="none" xmlns="http://www.w3.org/2000/svg">
<g clip-path="url(#clip0_2571_20856)">
<path d="M9.76997 10.64C10.13 9.94 10.45 9.29 10.79 8.66C11.92 6.53 13.2 4.52 15.14 3.02C16.82 1.72 18.63 0.679997 20.79 0.529997C23.57 0.339997 25.98 1.12 27.78 3.4C29.61 5.72 30.16 8.28 29.59 11.17C29.14 13.44 28.35 15.59 27.52 17.74C27.34 18.21 27.27 18.72 27.17 19.22C27.13 19.4 27.13 19.58 27.15 19.76C27.36 21.7 26.74 23.41 25.9 25.14C23.74 29.58 21.71 34.07 19.62 38.54C19.47 38.86 19.28 39.16 19.09 39.49C18.64 39.33 18.28 39.21 17.91 39.08C12.66 37.23 7.40997 35.38 2.14997 33.54C1.62997 33.36 1.27997 33.13 1.10997 32.55C0.919969 31.89 0.629969 31.24 0.289969 30.63C-0.140031 29.86 -0.0600305 29.15 0.259969 28.38C1.98997 24.12 3.69997 19.84 5.40997 15.57C6.05997 13.94 6.70997 12.31 7.36997 10.68C7.69997 9.86 7.73997 9.84 8.55997 10.16C8.94997 10.31 9.33997 10.46 9.76997 10.62V10.64ZM26.08 18.12C20.04 15.67 14.13 13.24 8.12997 10.84C5.64997 17.02 3.22997 23.07 0.759969 29.21C6.42997 31.08 11.99 32.9 17.6 34.75C20.43 29.19 23.22 23.72 26.07 18.12H26.08ZM23.72 16.32C24.72 16.73 25.74 17.15 26.78 17.58C26.88 17.42 26.96 17.33 27 17.23C27.86 15.03 28.6 12.8 28.94 10.44C29.16 8.88 29.12 7.36 28.43 5.91C27.09 3.11 25.07 1.32 21.78 1.25C19.36 1.2 17.4 2.23 15.57 3.65C13.65 5.13 12.44 7.16 11.33 9.25C11.05 9.78 10.81 10.32 10.5 10.96C11.63 11.42 12.68 11.84 13.81 12.3C14.27 11.37 14.72 10.52 15.12 9.65C15.68 8.42 16.46 7.36 17.4 6.4C18.29 5.49 19.37 5 20.59 4.83C23.17 4.46 24.71 5.5 25.37 8.02C25.45 8.31 25.48 8.61 25.51 8.91C25.64 10.17 25.39 11.39 25.02 12.58C24.64 13.81 24.18 15.02 23.72 16.33V16.32ZM22.95 16.02C23.08 15.81 23.17 15.69 23.23 15.56C24.01 13.91 24.49 12.17 24.76 10.36C24.93 9.19 24.74 8.07 24.19 7.02C23.77 6.21 23.13 5.7 22.23 5.58C20.65 5.36 19.25 5.74 18.04 6.83C16.31 8.38 15.63 10.55 14.51 12.6C17.36 13.76 20.15 14.89 22.95 16.03V16.02ZM1.03997 30.13L0.879969 30.26C1.12997 30.8 1.39997 31.34 1.60997 31.9C1.81997 32.45 2.14997 32.77 2.72997 32.97C7.58997 34.65 12.43 36.37 17.28 38.07C17.55 38.17 17.84 38.24 18.26 38.36C18.08 37.65 17.89 37.08 17.8 36.5C17.68 35.74 17.26 35.41 16.55 35.18C11.72 33.62 6.89997 32.02 2.07997 30.43C1.73997 30.32 1.38997 30.23 1.04997 30.13H1.03997ZM18.92 37.8L19.11 37.78C19.23 37.54 19.36 37.31 19.48 37.07C21.63 32.47 23.75 27.85 25.94 23.26C26.53 22.04 26.33 20.82 26.34 19.57C26.16 19.71 26.05 19.88 25.96 20.05C25.53 20.88 25.11 21.72 24.68 22.56C22.65 26.55 20.61 30.54 18.58 34.53C18.44 34.82 18.26 35.17 18.31 35.45C18.46 36.25 18.71 37.02 18.93 37.8H18.92Z" fill="#FAE100"/>
<path d="M11.2001 24.01C11.5001 23.8 11.7801 23.62 12.0401 23.42C13.4501 22.32 14.8301 21.19 16.2601 20.12C17.1801 19.43 18.1501 18.8 19.1201 18.2C19.7301 17.83 20.4401 17.6 21.0701 18.13C21.7101 18.66 21.6401 19.4 21.4601 20.14C21.1701 21.33 20.6001 22.33 19.6301 23.08C17.2401 24.94 14.8601 26.8 12.4701 28.66C12.2601 28.83 12.0201 28.97 11.7901 29.12C11.0101 29.61 10.7401 29.63 10.1301 28.98C9.0601 27.83 8.0301 26.64 7.0301 25.43C6.4201 24.68 6.0801 23.82 6.3301 22.81C6.3901 22.56 6.2801 22.28 6.2701 22.01C6.2501 21.5 6.3501 21.03 6.8201 20.75C7.2701 20.49 7.7301 20.61 8.1001 20.89C8.5801 21.25 9.0301 21.66 9.4501 22.09C10.0401 22.69 10.5801 23.34 11.1901 24.01H11.2001ZM7.1901 21.4C6.9401 21.96 7.0901 22.42 7.2801 22.87C7.9501 24.45 8.8701 25.86 10.0801 27.08C10.8501 27.86 11.2401 27.88 12.1401 27.25C12.2401 27.18 12.3301 27.1 12.4301 27.03C13.8201 25.96 15.2201 24.89 16.6001 23.81C17.6301 23.01 18.6601 22.21 19.6401 21.36C20.0401 21.01 20.3801 20.56 20.6601 20.1C20.9501 19.62 20.8801 18.94 20.6001 18.74C20.1701 18.43 19.7701 18.69 19.4201 18.9C18.5501 19.44 17.6801 20 16.8501 20.61C15.1401 21.87 13.4701 23.17 11.7701 24.43C11.0701 24.95 10.9901 24.92 10.4201 24.29C9.7501 23.55 9.0901 22.8 8.4001 22.07C8.0901 21.75 7.7701 21.41 7.1901 21.39V21.4Z" fill="#FAE100"/>
</g>
<defs>
<clipPath id="clip0_2571_20856">
<rect width="29.81" height="39" fill="white" transform="translate(0 0.5)"/>
</clipPath>
</defs>
</svg>
