<svg width="19" height="19" viewBox="0 0 19 19" fill="none" xmlns="http://www.w3.org/2000/svg">
<path d="M9.80465 15.4309C10.0485 15.4309 10.2824 15.5266 10.4549 15.6968C10.6273 15.867 10.7242 16.0979 10.7242 16.3386V17.2463C10.7242 17.4871 10.6273 17.7179 10.4549 17.8882C10.2824 18.0584 10.0485 18.154 9.80465 18.154C9.56077 18.154 9.32689 18.0584 9.15444 17.8882C8.982 17.7179 8.88512 17.4871 8.88512 17.2463V16.3386C8.88512 16.0979 8.982 15.867 9.15444 15.6968C9.32689 15.5266 9.56077 15.4309 9.80465 15.4309ZM15.6565 13.5701L16.3067 14.2119C16.4742 14.3831 16.5668 14.6124 16.5647 14.8504C16.5626 15.0884 16.4659 15.316 16.2955 15.4843C16.125 15.6526 15.8943 15.7481 15.6532 15.7501C15.4121 15.7522 15.1799 15.6607 15.0064 15.4954L14.3563 14.8536C14.1888 14.6824 14.0961 14.4531 14.0982 14.2152C14.1003 13.9772 14.197 13.7495 14.3675 13.5812C14.538 13.4129 14.7687 13.3174 15.0097 13.3154C15.2508 13.3133 15.4831 13.4048 15.6565 13.5701ZM3.95275 13.5701C4.11823 13.4073 4.34027 13.3128 4.57379 13.3058C4.8073 13.2988 5.03478 13.3797 5.21001 13.5322C5.38524 13.6848 5.49509 13.8974 5.51724 14.127C5.5394 14.3566 5.47219 14.5859 5.32929 14.7683L5.25297 14.8536L4.60286 15.4954C4.43738 15.6582 4.21534 15.7527 3.98182 15.7597C3.74831 15.7668 3.52083 15.6858 3.3456 15.5333C3.17037 15.3808 3.06052 15.1681 3.03837 14.9385C3.01621 14.7089 3.08341 14.4797 3.22632 14.2972L3.30264 14.2119L3.95275 13.5701ZM9.80465 3.63081C11.2679 3.63081 12.6712 4.2046 13.7059 5.22597C14.7406 6.24733 15.3218 7.63259 15.3218 9.07702C15.3218 10.5214 14.7406 11.9067 13.7059 12.9281C12.6712 13.9494 11.2679 14.5232 9.80465 14.5232C8.3414 14.5232 6.93808 13.9494 5.90341 12.9281C4.86873 11.9067 4.28746 10.5214 4.28746 9.07702C4.28746 7.63259 4.86873 6.24733 5.90341 5.22597C6.93808 4.2046 8.3414 3.63081 9.80465 3.63081ZM2.4484 8.16932C2.68277 8.16957 2.90819 8.25816 3.07861 8.41698C3.24904 8.5758 3.35159 8.79286 3.36533 9.02382C3.37906 9.25478 3.30294 9.4822 3.15251 9.65961C3.00209 9.83702 2.78871 9.95104 2.55598 9.97837L2.4484 9.98472H1.52886C1.29449 9.98446 1.06907 9.89587 0.898647 9.73705C0.728224 9.57823 0.625668 9.36117 0.611933 9.13021C0.598198 8.89926 0.67432 8.67184 0.824747 8.49443C0.975173 8.31701 1.18855 8.203 1.42128 8.17567L1.52886 8.16932H2.4484ZM18.0804 8.16932C18.3243 8.16932 18.5582 8.26495 18.7306 8.43518C18.9031 8.6054 19 8.83628 19 9.07702C19 9.31776 18.9031 9.54863 18.7306 9.71886C18.5582 9.88909 18.3243 9.98472 18.0804 9.98472H17.1609C16.917 9.98472 16.6831 9.88909 16.5107 9.71886C16.3382 9.54863 16.2414 9.31776 16.2414 9.07702C16.2414 8.83628 16.3382 8.6054 16.5107 8.43518C16.6831 8.26495 16.917 8.16932 17.1609 8.16932H18.0804ZM3.30264 2.65866C3.46098 2.50237 3.67164 2.40849 3.89511 2.39462C4.11858 2.38075 4.3395 2.44784 4.51642 2.58332L4.60286 2.65866L5.25297 3.3004C5.41788 3.46375 5.51363 3.68294 5.52076 3.91345C5.52789 4.14396 5.44587 4.36851 5.29136 4.54148C5.13685 4.71446 4.92143 4.8229 4.68886 4.84477C4.45629 4.86664 4.224 4.8003 4.03919 4.65923L3.95275 4.58389L3.30264 3.94215C3.13026 3.77193 3.03341 3.54109 3.03341 3.3004C3.03341 3.05971 3.13026 2.82888 3.30264 2.65866ZM16.3067 2.65866C16.479 2.82888 16.5759 3.05971 16.5759 3.3004C16.5759 3.54109 16.479 3.77193 16.3067 3.94215L15.6565 4.58389C15.5717 4.67059 15.4703 4.73974 15.3581 4.78731C15.2459 4.83488 15.1252 4.85992 15.0031 4.86097C14.881 4.86202 14.76 4.83905 14.6469 4.79341C14.5339 4.74777 14.4313 4.68037 14.3449 4.59515C14.2586 4.50992 14.1903 4.40857 14.1441 4.29702C14.0978 4.18547 14.0746 4.06594 14.0756 3.94542C14.0767 3.82489 14.1021 3.70578 14.1503 3.59504C14.1985 3.4843 14.2685 3.38414 14.3563 3.3004L15.0064 2.65866C15.1789 2.48849 15.4127 2.3929 15.6565 2.3929C15.9004 2.3929 16.1342 2.48849 16.3067 2.65866ZM9.80465 0C10.0485 0 10.2824 0.0956326 10.4549 0.26586C10.6273 0.436087 10.7242 0.666964 10.7242 0.907702V1.8154C10.7242 2.05614 10.6273 2.28702 10.4549 2.45725C10.2824 2.62747 10.0485 2.72311 9.80465 2.72311C9.56077 2.72311 9.32689 2.62747 9.15444 2.45725C8.982 2.28702 8.88512 2.05614 8.88512 1.8154V0.907702C8.88512 0.666964 8.982 0.436087 9.15444 0.26586C9.32689 0.0956326 9.56077 0 9.80465 0Z" fill="#A2A2A2"/>
</svg>
