<svg width="15" height="16" viewBox="0 0 15 16" fill="none" xmlns="http://www.w3.org/2000/svg">
<path d="M6.6183 1.03359e-05C5.5899 -0.00172116 4.57278 0.214115 3.63371 0.633344C3.49482 0.695781 3.37687 0.796954 3.29403 0.924733C3.21118 1.05251 3.16695 1.20147 3.16663 1.35376C3.16609 1.50827 3.21078 1.65956 3.29518 1.78898C3.37959 1.9184 3.50002 2.02029 3.64163 2.08209C4.758 2.59121 5.70245 3.41364 6.36018 4.44944C7.01792 5.48523 7.36062 6.68978 7.34663 7.91668C7.36062 9.14358 7.01792 10.3481 6.36018 11.3839C5.70245 12.4197 4.758 13.2421 3.64163 13.7513C3.50002 13.8131 3.37959 13.915 3.29518 14.0444C3.21078 14.1738 3.16609 14.3251 3.16663 14.4796C3.16695 14.6319 3.21118 14.7808 3.29403 14.9086C3.37687 15.0364 3.49482 15.1376 3.63371 15.2C4.57278 15.6192 5.5899 15.8351 6.6183 15.8333C8.67888 15.7917 10.639 14.9352 12.0694 13.4514C13.4998 11.9676 14.2839 9.97741 14.25 7.91668C14.2839 5.85595 13.4998 3.86575 12.0694 2.38194C10.639 0.89812 8.67888 0.0416214 6.6183 1.03359e-05Z" fill="#EFF0F1"/>
<rect y="4.16675" width="3" height="1.2" rx="0.6" fill="#D9D9D9"/>
<rect y="10.0833" width="3" height="1.2" rx="0.6" fill="#D9D9D9"/>
<rect x="1.375" y="7.125" width="3" height="1.2" rx="0.6" fill="#D9D9D9"/>
</svg>
