<svg width="25" height="26" viewBox="0 0 25 26" fill="none" xmlns="http://www.w3.org/2000/svg">
<path fill-rule="evenodd" clip-rule="evenodd" d="M22.2957 10.725C21.9161 6.75 19.6141 0.5 12.4999 0.5C5.3857 0.5 3.0837 6.75 2.70411 10.725C1.37251 11.2409 0.494166 12.546 0.500029 14V15.75C0.500029 17.683 2.03506 19.25 3.92858 19.25C5.8221 19.25 7.3571 17.683 7.3571 15.75V14C7.35095 12.5774 6.50486 11.2991 5.21428 10.7625C5.45917 8.4625 6.65915 3 12.4999 3C18.3406 3 19.5284 8.4625 19.7733 10.7625C18.4853 11.3003 17.6435 12.5794 17.6427 14V15.75C17.648 17.0937 18.4038 18.3166 19.5896 18.9C19.0753 19.8875 17.7651 21.225 14.5448 21.625C13.901 20.6271 12.6556 20.2337 11.5723 20.6861C10.489 21.1385 9.87068 22.3102 10.0966 23.4825C10.3225 24.6549 11.3295 25.5 12.4999 25.5C13.4248 25.4948 14.2679 24.9581 14.6794 24.1125C19.9324 23.5 21.61 20.7375 22.1365 19.1125C23.5609 18.6415 24.5189 17.2784 24.4997 15.75V14C24.5056 12.546 23.6273 11.2409 22.2957 10.725ZM4.90816 15.75C4.90816 16.3023 4.46959 16.75 3.92858 16.75C3.38758 16.75 2.949 16.3023 2.949 15.75V14C2.949 13.6427 3.13571 13.3126 3.43879 13.134C3.74187 12.9553 4.11529 12.9553 4.41837 13.134C4.72145 13.3126 4.90816 13.6427 4.90816 14V15.75ZM20.0916 14C20.0916 13.4477 20.5302 13 21.0712 13C21.6122 13 22.0508 13.4477 22.0508 14V15.75C22.0508 16.3023 21.6122 16.75 21.0712 16.75C20.5302 16.75 20.0916 16.3023 20.0916 15.75V14Z" fill="black"/>
</svg>
